#!OML:ASF H:\GeneralSubjects\Female5\Project 1\Capture day 1\Session 1\Female5.ASF
:FULLY-SPECIFIED
:DEGREES
172
root -18.7104 15.0912 3.3122 240.664 -76.4817 -221.393
lowerback 16.422 1.358 -7.49094
upperback -9.84257 -0.0633214 1.05771
thorax -20.6306 1.07114 5.53786
lowerneck -23.3856 -0.311948 -1.61922
upperneck 12.1393 1.06073 -5.94638
head 7.57687 -0.229228 -1.59789
rclavicle 6.85807e-015 1.11319e-014
rhumerus 29.5701 11.979 -60.449
rradius 57.5635
rwrist -70.9217
rhand -26.6516 -30.1092
rfingers 7.12502
rthumb -0.0835644 -60.0889
lclavicle 6.85807e-015 1.11319e-014
lhumerus 21.8755 -23.837 81.8785
lradius 65.4292
lwrist 28.5325
lhand -39.8644 50.9366
lfingers 7.12502
lthumb -12.8371 80.5219
rfemur -30.8742 -16.3335 16.5951
rtibia 65.3964
rfoot -18.5112 -16.7321
rtoes -9.75714
lfemur -35.4675 1.17239 -39.2691
ltibia 38.6849
lfoot -28.6402 -17.2309
ltoes -26.1575
173
root -19.0171 15.0949 3.30316 240.032 -75.9356 -219.911
lowerback 16.784 1.42636 -7.35093
upperback -9.73278 0.0809489 1.21465
thorax -20.744 1.13533 5.58947
lowerneck -23.5335 -0.388689 -1.88173
upperneck 12.0701 1.035 -5.94199
head 7.57673 -0.257237 -1.55876
rclavicle -1.09332e-014 -1.11319e-014
rhumerus 30.3911 11.4512 -61.0438
rradius 57.2376
rwrist -70.8293
rhand -26.3087 -31.0758
rfingers 7.12502
rthumb 0.247605 -61.0554
lclavicle -1.09332e-014 -1.11319e-014
lhumerus 22.7047 -23.914 81.9163
lradius 65.5977
lwrist 27.6015
lhand -40.287 52.1144
lfingers 7.12502
lthumb -13.2444 81.6736
rfemur -37.7824 -16.3873 18.1567
rtibia 67.5961
rfoot -21.7899 -19.5524
rtoes -5.46133
lfemur -34.8858 2.91553 -39.8318
ltibia 38.2197
lfoot -28.344 -18.3928
ltoes -25.572
174
root -19.3397 15.1112 3.29253 238.513 -75.4749 -217.743
lowerback 17.4395 1.60293 -6.94685
upperback -9.64672 0.438801 1.4426
thorax -21.1103 1.2726 5.49935
lowerneck -23.7685 -0.52808 -2.26439
upperneck 12.2151 0.993568 -6.02001
head 7.66343 -0.31566 -1.53346
rclavicle -2.52457e-014 -4.6118e-014
rhumerus 30.9892 10.8622 -61.714
rradius 56.7037
rwrist -69.7482
rhand -26.6483 -30.3253
rfingers 7.12502
rthumb -0.0803974 -60.3051
lclavicle -2.52457e-014 -4.6118e-014
lhumerus 23.2948 -24.0558 82.2379
lradius 66.1413
lwrist 27.2839
lhand -40.5162 52.8469
lfingers 7.12502
lthumb -13.4654 82.3916
rfemur -44.1876 -15.696 19.871
rtibia 68.2137
rfoot -26.2265 -17.9337
rtoes -4.4591
lfemur -33.8999 4.66716 -40.1069
ltibia 37.539
lfoot -28.4662 -18.7496
ltoes -27.168
175
root -19.6758 15.1327 3.27473 236.953 -74.8681 -215.73
lowerback 18.2785 1.8043 -6.53632
upperback -9.58401 0.810704 1.58977
thorax -21.6225 1.40943 5.30087
lowerneck -23.9539 -0.563757 -2.51875
upperneck 12.535 1.06324 -6.07984
head 7.80374 -0.316291 -1.50922
rclavicle 1.27222e-014 -1.43125e-014
rhumerus 31.4708 10.3237 -62.6603
rradius 55.8354
rwrist -68.0232
rhand -26.236 -30.0946
rfingers 7.12502
rthumb 0.317819 -60.0741
lclavicle 1.27222e-014 -1.43125e-014
lhumerus 23.7338 -24.1765 82.6673
lradius 66.6117
lwrist 26.8081
lhand -41.0659 52.7805
lfingers 7.12502
lthumb -13.9951 82.2894
rfemur -49.8524 -14.424 21.2477
rtibia 67.0692
rfoot -25.6178 -20.8554
rtoes -12.6802
lfemur -32.5089 6.37497 -40.3995
ltibia 36.6076
lfoot -28.3506 -19.3615
ltoes -27.4195
176
root -20.0224 15.1523 3.24277 235.517 -74.0486 -213.85
lowerback 19.0048 2.0124 -6.33778
upperback -9.5439 1.13846 1.70983
thorax -22.0884 1.54988 5.20187
lowerneck -24.0616 -0.585388 -2.632
upperneck 12.8627 1.09948 -6.0957
head 7.93314 -0.318877 -1.49626
rclavicle -7.95139e-015 1.27222e-014
rhumerus 32.059 10.1505 -63.3483
rradius 55.1551
rwrist -67.2665
rhand -27.2167 -30.6024
rfingers 7.12502
rthumb -0.629387 -60.5812
lclavicle -7.95139e-015 1.27222e-014
lhumerus 24.149 -24.2596 82.9877
lradius 66.9749
lwrist 25.9377
lhand -41.6742 52.6995
lfingers 7.12502
lthumb -14.5812 82.1669
rfemur -54.834 -12.5757 22.195
rtibia 64.4524
rfoot -25.7686 -20.0498
rtoes -11.8458
lfemur -31.0519 8.01769 -40.7208
ltibia 35.6838
lfoot -27.1412 -21.0455
ltoes -23.9718
177
root -20.3755 15.1635 3.20468 234.265 -73.1154 -212.127
lowerback 19.3983 2.17431 -6.165
upperback -9.39452 1.421 1.81062
thorax -22.1823 1.65492 5.10539
lowerneck -24.1442 -0.520781 -2.72009
upperneck 12.9567 1.23407 -6.15674
head 7.98235 -0.272494 -1.48671
rclavicle -4.09496e-014 -2.70347e-014
rhumerus 32.8106 10.3552 -63.6406
rradius 55.0203
rwrist -68.2718
rhand -28.2217 -30.8407
rfingers 7.12502
rthumb -1.60008 -60.8144
lclavicle -4.09496e-014 -2.70347e-014
lhumerus 24.7308 -24.2859 82.9174
lradius 67.4915
lwrist 25.164
lhand -42.2344 52.5501
lfingers 7.12502
lthumb -15.121 81.9777
rfemur -59.2003 -10.3068 22.7482
rtibia 60.8117
rfoot -24.2332 -20.6605
rtoes -16.7015
lfemur -29.6628 9.48624 -41.0631
ltibia 34.8549
lfoot -27.5137 -20.5911
ltoes -25.638
178
root -20.7424 15.1615 3.16975 233.59 -72.0901 -211.092
lowerback 19.2287 2.32474 -6.33378
upperback -8.92204 1.6823 2.13924
thorax -21.5061 1.79282 5.47313
lowerneck -24.2768 -0.468413 -3.21139
upperneck 12.6862 1.43811 -6.12459
head 7.91513 -0.197448 -1.36919
rclavicle 2.42517e-014 -5.725e-014
rhumerus 33.763 10.7663 -63.4951
rradius 55.6889
rwrist -70.386
rhand -29.6311 -31.0783
rfingers 7.12502
rthumb -2.96124 -61.0375
lclavicle 2.42517e-014 -5.725e-014
lhumerus 25.6718 -23.988 83.1573
lradius 68.0155
lwrist 23.9669
lhand -43.1182 52.1427
lfingers 7.12502
lthumb -15.9721 81.5042
rfemur -62.9691 -8.05432 22.7573
rtibia 56.4614
rfoot -23.7112 -19.6553
rtoes -17.081
lfemur -28.0935 10.6673 -41.6143
ltibia 33.9439
lfoot -28.1685 -20.1622
ltoes -27.4292
179
root -21.1272 15.1456 3.1371 233.407 -71.0493 -210.58
lowerback 19.5996 2.37176 -6.03361
upperback -8.91307 1.80565 2.09506
thorax -21.732 1.80389 5.19798
lowerneck -24.3084 -0.467935 -3.5752
upperneck 12.9603 1.50223 -5.67446
head 8.00568 -0.144679 -1.15249
rclavicle -4.77083e-014 -2.70347e-014
rhumerus 33.1649 11.1892 -64.3717
rradius 57.4462
rwrist -72.3839
rhand -30.1839 -30.7201
rfingers 7.12502
rthumb -3.495 -60.6712
lclavicle -4.77083e-014 -2.70347e-014
lhumerus 25.6178 -24.3034 83.5353
lradius 68.8389
lwrist 22.0269
lhand -44.2857 52.0547
lfingers 7.12502
lthumb -17.0962 81.3225
rfemur -65.6565 -5.88787 22.2407
rtibia 50.5412
rfoot -22.2772 -18.6917
rtoes -17.2722
lfemur -26.475 11.3309 -42.2259
ltibia 33.2444
lfoot -28.9057 -19.766
ltoes -30.0466
180
root -21.5258 15.1178 3.10136 233.308 -70.0733 -210.153
lowerback 20.1828 2.44993 -5.60863
upperback -9.12222 1.97942 1.99587
thorax -22.3855 1.82621 4.76898
lowerneck -24.2496 -0.52225 -3.70867
upperneck 13.3213 1.47088 -5.54043
head 8.11602 -0.161733 -1.09237
rclavicle -1.94809e-014 -3.65764e-014
rhumerus 31.5917 11.9146 -65.139
rradius 61.4515
rwrist -74.4239
rhand -30.0949 -30.3947
rfingers 7.12502
rthumb -3.40906 -60.3472
lclavicle -1.94809e-014 -3.65764e-014
lhumerus 25.07 -25.109 84.4071
lradius 70.018
lwrist 19.3131
lhand -44.924 51.2863
lfingers 7.12502
lthumb -17.7105 80.4997
rfemur -67.7871 -3.55088 21.0808
rtibia 43.839
rfoot -19.3125 -18.5155
rtoes -16.2791
lfemur -25.0007 11.5641 -42.7014
ltibia 33.0647
lfoot -29.6507 -19.2732
ltoes -33.1837
181
root -21.9574 15.0734 3.0559 234.185 -69.5208 -210.935
lowerback 20.4893 2.20271 -4.92603
upperback -9.19815 1.79771 1.85498
thorax -22.6151 1.6399 4.28323
lowerneck -24.2314 -0.423562 -3.63471
upperneck 13.5528 1.58814 -5.49183
head 8.19291 -0.103149 -1.07297
rclavicle 1.19271e-014 1.27222e-014
rhumerus 28.93 12.7205 -66.7065
rradius 67.4408
rwrist -74.7522
rhand -29.0003 -28.1573
rfingers 7.12502
rthumb -2.352 -58.1241
lclavicle 1.19271e-014 1.27222e-014
lhumerus 24.704 -26.4237 84.9582
lradius 71.9282
lwrist 17.4581
lhand -45.5046 52.6387
lfingers 7.12502
lthumb -18.2691 81.8007
rfemur -68.075 -1.07586 18.2215
rtibia 35.3732
rfoot -16.738 -18.9684
rtoes -9.47271
lfemur -23.3715 11.2505 -43.0367
ltibia 33.4379
lfoot -30.1354 -18.7339
ltoes -36.2813
